# AST/ASF file generated using VICON BodyLanguage
# -----------------------------------------------
:version 1.10
:name VICON
:units
  mass 1.0
  length 0.45
  angle deg
:documentation
   .ast/.asf automatically generated from VICON data using
   VICON BodyBuilder and BodyLanguage model FoxedUp or BRILLIANT.MOD
:root
   order TX TY TZ RX RY RZ
   axis XYZ
   position 0 0 0  
   orientation 0 0 0 
:bonedata
  begin
     id 1 
     name lhipjoint
     direction 0.597014 -0.743513 0.301268 
     length 2.48253 
     axis 0 0 0  XYZ
  end
  begin
     id 2 
     name lfemur
     direction 0.34202 -0.939693 0  
     length 7.51389  
     axis 0 0 20  XYZ
    dof rx ry rz
    limits (-160.0 20.0)
           (-70.0 70.0)
           (-60.0 70.0)
  end
  begin
     id 3 
     name ltibia
     direction 0.34202 -0.939693 0   
     length 7.54147   
     axis 0 0 20   XYZ
    dof rx
    limits (-10.0 170.0)
  end
  begin
     id 4 
     name lfoot
     direction 0.10378 -0.285133 0.952853   
     length 2.2132   
     axis -90 7.62852e-016 20   XYZ
    dof rx rz
    limits (-45.0 90.0)
           (-70.0 20.0)
  end
  begin
     id 5 
     name ltoes
     direction 1.5354e-011 -4.2171e-011 1   
     length 1.10362   
     axis -90 7.62852e-016 20   XYZ
    dof rx
    limits (-90.0 20.0)
  end
  begin
     id 6 
     name rhipjoint
     direction -0.591912 -0.747009 0.302685   
     length 2.47092  
     axis 0 0 0  XYZ 
  end
  begin
     id 7 
     name rfemur
     direction -0.34202 -0.939693 0   
     length 7.69991   
     axis 0 0 -20   XYZ
    dof rx ry rz
    limits (-160.0 20.0)
           (-70.0 70.0)
           (-70.0 60.0)
  end
  begin
     id 8 
     name rtibia
     direction -0.34202 -0.939693 0   
     length 7.40774   
     axis 0 0 -20   XYZ
    dof rx
    limits (-10.0 170.0)
 end
 begin
     id 9 
     name rfoot
     direction -0.0916245 -0.251736 0.963449   
     length 2.08235  
     axis -90 -7.62852e-016 -20   XYZ
    dof rx rz
    limits (-45.0 90.0)
           (-20.0 70.0)
  end
  begin
     id 10 
     name rtoes
     direction -1.53527e-011 -4.21878e-011 1   
     length 1.04369   
     axis -90 -7.62852e-016 -20   XYZ
    dof rx
    limits (-90.0 20.0)
  end
  begin
     id 11 
     name lowerback
     direction -0.0122523 0.991496 -0.12956   
     length 2.10814   
     axis 0 0 0   XYZ
    dof rx ry rz
    limits (-20.0 45.0)
           (-30.0 30.0)
           (-30.0 30.0)
  end
  begin
     id 12 
     name upperback
     direction 0.012378 0.999784 -0.0167122   
     length 2.11728   
     axis 0 0 0   XYZ
    dof rx ry rz
    limits (-20.0 45.0)
           (-30.0 30.0)
           (-30.0 30.0)
  end
  begin
     id 13 
     name thorax
     direction 0.0187236 0.998893 0.0431542   
     length 2.15267   
     axis 0 0 0   XYZ
    dof rx ry rz
    limits (-20.0 45.0)
           (-30.0 30.0)
           (-30.0 30.0)
  end
  begin
     id 14 
     name lowerneck
     direction 0.0165467 0.987304 0.157979   
     length 1.72129   
     axis 0 0 0   XYZ
    dof rx ry rz
    limits (-20.0 45.0)
           (-30.0 30.0)
           (-30.0 30.0)
  end
  begin
     id 15 
     name upperneck
     direction -0.0560236 0.986819 -0.151818   
     length 1.75382   
     axis 0 0 0   XYZ
    dof rx ry rz
    limits (-20.0 45.0)
           (-30.0 30.0)
           (-30.0 30.0)
  end
  begin
     id 16
     name head
     direction -0.0173602 0.99745 -0.0692312  
     length 1.76328  
     axis 0 0 0   XYZ
    dof rx ry rz
    limits (-20.0 45.0)
           (-30.0 30.0)
           (-30.0 30.0)
  end
  begin
     id 17 
     name lclavicle
     direction 0.957734 0.271724 -0.094399  
     length 3.5782  
     axis 0 0 0   XYZ
    dof ry rz
    limits (-20.0 10.0)
           (0.0 20.0)
  end
  begin
     id 18 
     name lhumerus
     direction 1 -4.48963e-011 1.21581e-027   
     length 5.25525   
     axis 180 -30 -90   XYZ
    dof rx ry rz
    limits (-60.0 90.0)
           (-90.0 90.0)
           (-90.0 90.0)
  end
  begin
     id 19
     name lradius
     direction 1 -4.48975e-011 3.71216e-028   
     length 3.35106   
     axis 180 -30 -90   XYZ
    dof rx
    limits (-10.0 170.0)
  end
  begin
     id 20
     name lwrist
     direction 1 -4.48957e-011 4.76535e-027   
     length 1.67553   
     axis -3.27501e-015 90 90   XYZ
    dof ry
    limits (-180.0 0.0)
 end
  begin
     id 21 
     name lhand
     direction 1 -4.49008e-011 9.52727e-027   
     length 0.574153   
     axis -6.08097e-015 90 90   XYZ
    dof rx rz
    limits (-90.0 90.0)
           (-45.0 45.0)
  end
  begin
     id 22 
     name lfingers
     direction 1 -4.48996e-011 1.90562e-026   
     length 0.462897   
     axis -1.21618e-014 90 90   XYZ
    dof rx
    limits (0.0 90.0)
  end
  begin
     id 23
     name lthumb
     direction 0.707107 -6.34908e-011 0.707107   
     length 0.66463   
     axis -90 45 -1.62303e-014   XYZ
    dof rx rz
    limits (-45.0 45.0)
           (-45.0 45.0)
  end
  begin
     id 24 
     name rclavicle
     direction -0.950439 0.29623 -0.0944132   
     length 3.45861  
     axis 0 0 0   XYZ 
    dof ry rz
    limits (-10.0 20.0)
           (-20.0 0.0)
  end
  begin
     id 25 
     name rhumerus
     direction -1 -4.48986e-011 1.25473e-027  
     length 5.33104   
     axis 180 30 90   XYZ
    dof rx ry rz
    limits (-90.0 60.0)
           (-90.0 90.0)
           (-90.0 90.0)
  end
  begin
     id 26 
     name rradius
     direction -1 -4.4894e-011 1.66273e-027   
     length 3.39883   
     axis 180 30 90   XYZ
    dof rx
    limits (-10.0 170.0)
  end
  begin
     id 27 
     name rwrist
     direction -1 -4.48946e-011 4.76572e-027   
     length 1.69941   
     axis -3.27501e-015 -90 -90   XYZ
    dof ry
    limits (-180.0 0.0)
  end
  begin
     id 28
     name rhand
     direction -1 -4.49028e-011 9.52595e-027   
     length 0.913886   
     axis -6.08097e-015 -90 -90   XYZ
    dof rx rz
    limits (-90.0 90.0)
           (-45.0 45.0)
  end
  begin
     id 29
     name rfingers
     direction -1 -4.48945e-011 1.9063e-026   
     length 0.736798   
     axis -1.21618e-014 -90 -90   XYZ
    dof rx
    limits (0.0 90.0)
  end
  begin
     id 30
     name rthumb
     direction -0.707107 -6.34966e-011 0.707107   
     length 1.0579   
     axis -90 -45 1.62303e-014   XYZ
    dof rx rz
    limits (-45.0 45.0)
           (-45.0 45.0)
  end
:hierarchy
  begin
    root lhipjoint rhipjoint lowerback
    lhipjoint lfemur
    lfemur ltibia
    ltibia lfoot
    lfoot ltoes
    rhipjoint rfemur
    rfemur rtibia
    rtibia rfoot
    rfoot rtoes
    lowerback upperback
    upperback thorax
    thorax lowerneck lclavicle rclavicle
    lowerneck upperneck
    upperneck head
    lclavicle lhumerus
    lhumerus lradius
    lradius lwrist
    lwrist lhand lthumb
    lhand lfingers
    rclavicle rhumerus
    rhumerus rradius
    rradius rwrist
    rwrist rhand rthumb
    rhand rfingers
  end

#!OML:ASF F:\VICON\USERDATA\INSTALL\rory3\rory3.ASF
:FULLY-SPECIFIED
:DEGREES
603
root -10.04 17.533 -21.2497 -367.612 -54.2231 -360.884
lowerback 19.6914 -5.29534 -11.0028
upperback 3.82762 -9.08779 5.58047
thorax -4.01669 -4.58719 14.4421
lowerneck -6.47776 -7.60114 -7.80069
upperneck 36.9006 -9.37684 -6.37009
head 13.7052 -6.4564 -2.55155
rclavicle -1.33186e-014 4.69132e-014
rhumerus 41.1984 -36.9695 -16.5484
rradius 60.5149
rwrist -29.3547
rhand 11.1172 334.751
rfingers 7.12502
rthumb 36.1852 -771.519
lclavicle -1.33186e-014 4.69132e-014
lhumerus -52.3828 36.5427 -18.8044
lradius 70.8955
lwrist 48.3245
lhand -25.9562 27.8994
lfingers 7.12502
lthumb 0.588028 57.8784
rfemur -8.10442 5.4431 8.36844
rtibia 37.0798
rfoot -10.4282 -7.19636
rtoes -26.0072
lfemur -9.51268 -11.4179 -3.18634
ltibia 48.0889
lfoot 0.314758 14.3708
ltoes -20.2913
604
root -10.169 17.6522 -21.4732 -367.648 -55.5636 -360.519
lowerback 18.3644 -4.56306 -9.56813
upperback 4.74471 -7.75177 4.40602
thorax -3.12397 -4.01963 11.7741
lowerneck -6.70572 -8.93172 -6.41558
upperneck 37.9547 -12.0295 -5.33451
head 14.1885 -7.27148 -2.80904
rclavicle 5.17834e-014 -3.26007e-014
rhumerus 37.1115 -39.8976 -13.6272
rradius 60.2296
rwrist -26.9278
rhand 14.2607 337.701
rfingers 7.12502
rthumb 39.1553 -767.775
lclavicle 5.17834e-014 -3.26007e-014
lhumerus -49.7929 38.9778 -16.2463
lradius 70.3994
lwrist 47.7154
lhand -26.1213 27.6011
lfingers 7.12502
lthumb 0.42855 57.5804
rfemur -7.98993 4.65317 8.9326
rtibia 35.1844
rfoot -9.02652 -5.21861
rtoes -31.4295
lfemur -9.87064 -9.93526 -3.93255
ltibia 47.8733
lfoot -1.55586 12.3443
ltoes -18.1883
605
root -10.2717 17.7825 -21.691 -367.135 -56.7752 -360.72
lowerback 17.4221 -3.80102 -7.57821
upperback 5.46393 -6.3557 3.22058
thorax -2.61016 -3.35288 8.93481
lowerneck -6.94396 -9.84188 -3.32634
upperneck 38.4021 -14.0987 -5.08354
head 14.143 -7.69475 -3.48904
rclavicle -3.19049e-014 7.95139e-015
rhumerus 31.9423 -42.3905 -9.85923
rradius 59.9069
rwrist -23.6922
rhand 17.5713 341.493
rfingers 7.12502
rthumb 42.2662 -763.007
lclavicle -3.19049e-014 7.95139e-015
lhumerus -46.06 40.9213 -12.9272
lradius 69.4382
lwrist 47.353
lhand -26.0024 27.2446
lfingers 7.12502
lthumb 0.54346 57.2237
rfemur -8.14004 3.79728 9.71879
rtibia 33.6695
rfoot -7.63002 -2.73726
rtoes -30.7208
lfemur -10.5023 -8.45004 -4.58732
ltibia 47.5307
lfoot -2.75808 9.6288
ltoes -20.4691
606
root -10.3801 17.9628 -21.86 -366.997 -58.5095 -360.599
lowerback 16.5652 -3.27215 -6.01391
upperback 6.06283 -5.38281 2.4926
thorax -1.95551 -2.89621 6.98445
lowerneck -7.43612 -10.3759 -1.39601
upperneck 38.5375 -15.3104 -4.99718
head 14.0929 -7.92666 -3.93567
rclavicle -1.00287e-013 3.02153e-014
rhumerus 28.935 -44.1564 -7.15179
rradius 59.6669
rwrist -19.9454
rhand 20.2979 346.051
rfingers 7.12502
rthumb 44.8125 -757.522
lclavicle -1.00287e-013 3.02153e-014
lhumerus -44.7059 41.607 -10.6348
lradius 68.7324
lwrist 48.2339
lhand -26.4817 27.4156
lfingers 7.12502
lthumb 0.0804884 57.3953
rfemur -8.54278 3.04657 10.0236
rtibia 32.596
rfoot -5.52367 0.579612
rtoes -23.2045
lfemur -10.5911 -8.06374 -6.23553
ltibia 47.0072
lfoot -4.2443 7.6029
ltoes -24.0657
607
root -10.4629 18.1227 -22.0433 -366.705 -59.8403 -360.528
lowerback 16.2613 -3.05276 -5.24278
upperback 6.40242 -4.97521 2.39254
thorax -1.58263 -2.71083 6.33385
lowerneck -8.22903 -10.6186 -0.291979
upperneck 38.5241 -15.7892 -5.26091
head 14.092 -7.99567 -4.31525
rclavicle 6.95746e-015 -1.11319e-014
rhumerus 27.3105 -45.4252 -4.89267
rradius 59.8695
rwrist -16.6757
rhand 19.7167 345.175
rfingers 7.12502
rthumb 44.2711 -758.606
lclavicle 6.95746e-015 -1.11319e-014
lhumerus -44.7741 41.4723 -8.7078
lradius 68.0075
lwrist 49.7007
lhand -28.0197 27.9451
lfingers 7.12502
lthumb -1.4049 57.9202
rfemur -9.30071 1.49487 10.1482
rtibia 32.002
rfoot -2.28405 4.24943
rtoes -14.9699
lfemur -11.1878 -7.80704 -7.75316
ltibia 46.3937
lfoot -5.44119 4.9597
ltoes -23.9426
608
root -10.53 18.236 -22.2401 -366.107 -60.8946 -361.045
lowerback 16.5061 -3.12666 -4.78563
upperback 6.57836 -5.02106 2.71168
thorax -1.52853 -2.74715 6.43468
lowerneck -8.62856 -10.6336 0.00285841
upperneck 38.2595 -15.779 -5.44842
head 13.9998 -7.97255 -4.43512
rclavicle -7.23576e-014 1.78906e-014
rhumerus 26.8423 -46.1315 -3.57002
rradius 60.6054
rwrist -13.9872
rhand 17.5311 344.323
rfingers 7.12502
rthumb 42.2286 -760.19
lclavicle -7.23576e-014 1.78906e-014
lhumerus -46.0673 41.1716 -7.54844
lradius 67.3291
lwrist 50.4454
lhand -28.698 28.6328
lfingers 7.12502
lthumb -2.06003 58.6026
rfemur -9.98736 0.605576 10.4114
rtibia 31.7991
rfoot 1.05468 7.40356
rtoes -9.4959
lfemur -11.8509 -7.28692 -8.69648
ltibia 45.6598
lfoot -6.23885 1.8909
ltoes -29.6755
609
root -10.5966 18.3112 -22.4456 -365.68 -61.9942 -361.396
lowerback 16.9024 -2.98483 -4.49321
upperback 6.67994 -4.81082 2.92376
thorax -1.66456 -2.64525 6.49181
lowerneck -9.16633 -10.7054 -0.0919502
upperneck 38.3103 -16.0648 -4.96016
head 14.2021 -8.01891 -4.331
rclavicle 3.37934e-014 -8.74653e-015
rhumerus 26.5289 -47.2085 -2.71037
rradius 60.4422
rwrist -10.6141
rhand 15.8577 344.786
rfingers 7.12502
rthumb 40.6584 -760.238
lclavicle 3.37934e-014 -8.74653e-015
lhumerus -46.3195 41.5289 -6.17215
lradius 66.3128
lwrist 49.9126
lhand -28.1238 28.9319
lfingers 7.12502
lthumb -1.50552 58.9063
rfemur -10.8149 0.553734 10.3425
rtibia 32.0409
rfoot 3.4111 10.7197
rtoes -14.0767
lfemur -12.545 -6.53108 -9.49819
ltibia 44.9133
lfoot -6.46191 -2.05181
ltoes -38.4336
610
root -10.6718 18.3493 -22.648 -366.057 -63.0625 -360.858
lowerback 17.231 -2.80152 -4.65956
upperback 6.73195 -4.61471 2.99706
thorax -1.78769 -2.55283 6.65844
lowerneck -9.56689 -10.7185 -0.814393
upperneck 38.1974 -16.3549 -3.77614
head 14.4614 -8.05681 -3.85518
rclavicle -4.24405e-014 3.81667e-014
rhumerus 27.1553 -48.4493 -2.71409
rradius 59.2832
rwrist -6.91837
rhand 13.7378 345.537
rfingers 7.12502
rthumb 38.6622 -760.079
lclavicle -4.24405e-014 3.81667e-014
lhumerus -46.2953 41.3156 -4.67954
lradius 65.7231
lwrist 49.4613
lhand -26.9742 29.222
lfingers 7.12502
lthumb -0.395172 59.2014
rfemur -11.694 1.04811 9.60593
rtibia 32.7317
rfoot 2.4598 13.4701
rtoes -28.1988
lfemur -13.2712 -5.95193 -10.5986
ltibia 44.0033
lfoot -6.59018 -5.46742
ltoes -38.6645
611
root -10.7593 18.36 -22.8432 -365.88 -64.158 -361.227
lowerback 17.618 -2.82572 -4.50471
upperback 6.75983 -4.64083 3.23585
thorax -1.94722 -2.56916 6.86262
lowerneck -9.78678 -10.6266 0.165165
upperneck 37.6429 -16.0483 -4.6148
head 14.0426 -7.93098 -4.23189
rclavicle 3.81667e-014 -2.78299e-014
rhumerus 28.9799 -49.4261 -3.57508
rradius 58.2111
rwrist -4.16547
rhand 12.017 344.353
rfingers 7.12502
rthumb 37.0368 -761.702
lclavicle 3.81667e-014 -2.78299e-014
lhumerus -46.7951 40.4636 -3.65178
lradius 65.229
lwrist 49.2015
lhand -25.3008 28.5632
lfingers 7.12502
lthumb 1.22103 58.5394
rfemur -12.152 1.83877 9.19398
rtibia 33.8695
rfoot 2.38143 14.7547
rtoes -28.0074
lfemur -13.5247 -6.238 -11.1592
ltibia 42.8759
lfoot -6.3413 -7.77569
ltoes -36.2899
612
root -10.8545 18.3261 -23.032 -366.355 -64.8291 -361.091
lowerback 17.9771 -2.93857 -4.35039
upperback 6.73627 -4.77982 3.32636
thorax -2.1439 -2.63371 6.9279
lowerneck -9.9235 -10.4952 1.08077
upperneck 37.2723 -15.7557 -5.34665
head 13.7247 -7.80541 -4.57107
rclavicle -3.79679e-014 7.95139e-015
rhumerus 30.3775 -50.0307 -4.07898
rradius 57.3978
rwrist -2.41158
rhand 12.24 343.643
rfingers 7.12502
rthumb 37.2477 -762.357
lclavicle -3.79679e-014 7.95139e-015
lhumerus -46.6621 39.7521 -2.4629
lradius 64.8779
lwrist 48.6244
lhand -25.7671 28.4844
lfingers 7.12502
lthumb 0.770681 58.4628
rfemur -12.0488 2.03972 8.32561
rtibia 35.3224
rfoot -1.29802 12.1567
rtoes -34.7286
lfemur -13.5095 -7.19017 -11.8835
ltibia 41.5182
lfoot -5.46968 -9.34998
ltoes -40.483
613
root -10.9536 18.254 -23.223 -366.825 -65.3578 -360.915
lowerback 18.1363 -3.02369 -4.04425
upperback 6.70525 -4.84799 3.32323
thorax -2.27816 -2.65892 6.77734
lowerneck -10.2118 -10.5384 0.403598
upperneck 37.2796 -15.8244 -4.92929
head 13.9105 -7.85396 -4.35976
rclavicle 3.99557e-014 -1.66979e-014
rhumerus 31.6627 -50.7904 -4.56512
rradius 56.5331
rwrist -1.00036
rhand 11.8122 343.512
rfingers 7.12502
rthumb 36.8431 -762.592
lclavicle 3.99557e-014 -1.66979e-014
lhumerus -45.7357 39.2772 -0.969806
lradius 64.7558
lwrist 48.3386
lhand -26.4206 28.396
lfingers 7.12502
lthumb 0.139485 58.3757
rfemur -11.8041 1.78499 7.31835
rtibia 36.7965
rfoot -3.81232 9.38615
rtoes -35.4474
lfemur -13.6576 -8.24488 -12.4481
ltibia 40.2485
lfoot -3.97152 -10.8522
ltoes -45.2776
614
root -11.0497 18.1687 -23.4247 -366.513 -65.6622 -361.55
lowerback 18.1482 -3.13257 -3.35854
upperback 6.64262 -4.87519 3.21994
thorax -2.41988 -2.6533 6.28499
lowerneck -10.4732 -10.6757 0.448676
upperneck 37.3118 -16.1341 -4.71157
head 13.9933 -7.94522 -4.35265
rclavicle -3.598e-014 2.62396e-014
rhumerus 32.0506 -51.2673 -4.53835
rradius 56.097
rwrist -0.736732
rhand 11.2414 342.77
rfingers 7.12502
rthumb 36.3028 -763.471
lclavicle -3.598e-014 2.62396e-014
lhumerus -44.0568 38.756 0.52812
lradius 64.966
lwrist 48.3406
lhand -26.3268 27.8724
lfingers 7.12502
lthumb 0.23014 57.852
rfemur -11.3932 1.63332 6.53078
rtibia 38.357
rfoot -6.45181 5.8047
rtoes -36.3385
lfemur -13.8156 -9.91226 -12.4442
ltibia 39.3854
lfoot -2.88922 -11.2761
ltoes -39.6375
615
root -11.1461 18.0739 -23.6316 -366.314 -65.98 -361.998
lowerback 18.1694 -3.20204 -3.0993
upperback 6.3914 -4.90705 3.32541
thorax -2.7086 -2.64831 6.27287
lowerneck -10.5546 -10.7724 0.317785
upperneck 37.3001 -16.2276 -4.80209
head 14.005 -8.01814 -4.38728
rclavicle -5.52621e-014 1.98785e-014
rhumerus 33.3883 -51.6001 -5.30274
rradius 55.7614
rwrist -0.768582
rhand 11.403 342.237
rfingers 7.12502
rthumb 36.4558 -763.967
lclavicle -5.52621e-014 1.98785e-014
lhumerus -43.1667 38.1984 1.76408
lradius 65.7473
lwrist 47.9454
lhand -26.1109 27.6578
lfingers 7.12502
lthumb 0.438634 57.6371
rfemur -10.824 1.86878 5.56268
rtibia 39.6708
rfoot -7.50396 1.62366
rtoes -31.9165
lfemur -14.1666 -10.758 -12.1346
ltibia 39.1816
lfoot -1.7346 -10.673
ltoes -23.4353
616
root -11.2324 17.9116 -23.8405 -367.064 -66.4735 -361.524
lowerback 18.381 -3.18347 -3.35336
upperback 6.05228 -4.91087 3.4606
thorax -3.1456 -2.62703 6.60215
lowerneck -10.5191 -10.8107 0.00483831
upperneck 37.383 -16.1436 -5.08781
head 14.0365 -8.06901 -4.44509
rclavicle 7.15625e-015 1.59028e-015
rhumerus 35.7018 -51.7915 -6.93189
rradius 55.3829
rwrist -0.990771
rhand 11.446 342.241
rfingers 7.12502
rthumb 36.4965 -763.952
lclavicle 7.15625e-015 1.59028e-015
lhumerus -42.7171 37.7279 2.79982
lradius 66.9378
lwrist 47.5266
lhand -25.8407 27.4736
lfingers 7.12502
lthumb 0.699556 57.4522
rfemur -10.2767 2.06122 4.11998
rtibia 40.8011
rfoot -6.95458 -1.55569
rtoes -21.931
lfemur -13.3256 -11.1908 -12.053
ltibia 39.3884
lfoot -5.01355 -7.14146
ltoes -29.6014
